<svg width="194" height="34" viewBox="0 0 194 34" fill="none" xmlns="http://www.w3.org/2000/svg">
<path d="M17.8785 29.4808C17.3968 29.6508 16.6035 29.6508 16.1218 29.4808C12.0135 28.0783 2.8335 22.2274 2.8335 12.3108C2.8335 7.93327 6.361 4.3916 10.7102 4.3916C13.2885 4.3916 15.5693 5.63827 17.0002 7.56494C18.431 5.63827 20.726 4.3916 23.2902 4.3916C27.6393 4.3916 31.1668 7.93327 31.1668 12.3108C31.1668 22.2274 21.9868 28.0783 17.8785 29.4808Z" fill="#FC736C" stroke="#FC736C" stroke-width="2.5" stroke-linecap="round" stroke-linejoin="round"/>
<path d="M57.8785 29.4808C57.3968 29.6508 56.6035 29.6508 56.1218 29.4808C52.0135 28.0783 42.8335 22.2274 42.8335 12.3108C42.8335 7.93327 46.361 4.3916 50.7102 4.3916C53.2885 4.3916 55.5693 5.63827 57.0002 7.56494C58.431 5.63827 60.726 4.3916 63.2902 4.3916C67.6393 4.3916 71.1668 7.93327 71.1668 12.3108C71.1668 22.2274 61.9868 28.0783 57.8785 29.4808Z" fill="#FC736C" stroke="#FC736C" stroke-width="2.5" stroke-linecap="round" stroke-linejoin="round"/>
<path d="M97.8785 29.4808C97.3968 29.6508 96.6035 29.6508 96.1218 29.4808C92.0135 28.0783 82.8335 22.2274 82.8335 12.3108C82.8335 7.93327 86.361 4.3916 90.7102 4.3916C93.2885 4.3916 95.5693 5.63827 97.0002 7.56494C98.431 5.63827 100.726 4.3916 103.29 4.3916C107.639 4.3916 111.167 7.93327 111.167 12.3108C111.167 22.2274 101.987 28.0783 97.8785 29.4808Z" fill="#FC736C" stroke="#FC736C" stroke-width="2.5" stroke-linecap="round" stroke-linejoin="round"/>
<path d="M137.878 29.4808C137.397 29.6508 136.603 29.6508 136.122 29.4808C132.013 28.0783 122.833 22.2274 122.833 12.3108C122.833 7.93327 126.361 4.3916 130.71 4.3916C133.288 4.3916 135.569 5.63827 137 7.56494C138.431 5.63827 140.726 4.3916 143.29 4.3916C147.639 4.3916 151.167 7.93327 151.167 12.3108C151.167 22.2274 141.987 28.0783 137.878 29.4808Z" fill="#FC736C" stroke="#FC736C" stroke-width="2.5" stroke-linecap="round" stroke-linejoin="round"/>
<path d="M177.878 29.4808C177.397 29.6508 176.603 29.6508 176.122 29.4808C172.013 28.0783 162.833 22.2274 162.833 12.3108C162.833 7.93327 166.361 4.3916 170.71 4.3916C173.288 4.3916 175.569 5.63827 177 7.56494C178.431 5.63827 180.726 4.3916 183.29 4.3916C187.639 4.3916 191.167 7.93327 191.167 12.3108C191.167 22.2274 181.987 28.0783 177.878 29.4808Z" stroke="#FC736C" stroke-width="2" stroke-linecap="round" stroke-linejoin="round"/>
</svg>
